<svg width="56" height="56" viewBox="0 0 56 56" fill="none" xmlns="http://www.w3.org/2000/svg">
<path d="M38.8887 34.667C39.5022 34.667 39.9998 35.1639 40 35.7773C40 36.391 39.5023 36.8887 38.8887 36.8887H18.4443C17.8307 36.8886 17.333 36.391 17.333 35.7773C17.3332 35.1639 17.8309 34.6671 18.4443 34.667H38.8887ZM35.7939 26.667C36.4074 26.667 36.905 27.1639 36.9053 27.7773C36.9053 28.391 36.4076 28.8887 35.7939 28.8887H21.5459C20.9322 28.8887 20.4346 28.391 20.4346 27.7773C20.4348 27.1639 20.9324 26.667 21.5459 26.667H35.7939ZM38.8887 18.667C39.5022 18.667 39.9998 19.1639 40 19.7773C40 20.391 39.5023 20.8887 38.8887 20.8887H18.4443C17.8307 20.8886 17.333 20.391 17.333 19.7773C17.3332 19.1639 17.8309 18.6671 18.4443 18.667H38.8887Z" fill="#26282A"/>
</svg>
