<svg width="30" height="30" viewBox="0 0 30 30" fill="none" xmlns="http://www.w3.org/2000/svg">
    <path fill-rule="evenodd" clip-rule="evenodd"
        d="M14.7712 3.5025C12.6016 3.73449 10.5418 4.57569 8.83002 5.9289C7.11824 7.28211 5.82431 9.09208 5.09777 11.1496C4.37124 13.2072 4.24175 15.4283 4.72428 17.5564C5.20682 19.6844 6.28166 21.6324 7.82461 23.1754C9.36756 24.7183 11.3156 25.7932 13.4436 26.2757C15.5717 26.7582 17.7928 26.6288 19.8504 25.9022C21.9079 25.1757 23.7179 23.8818 25.0711 22.17C26.4243 20.4582 27.2655 18.3984 27.4975 16.2288C26.7055 17.2351 25.7092 18.0621 24.5743 18.6554C23.4393 19.2486 22.1916 19.5946 20.9132 19.6705C19.6348 19.7464 18.3549 19.5506 17.1577 19.0958C15.9606 18.641 14.8734 17.9377 13.9679 17.0321C13.0623 16.1266 12.359 15.0394 11.9042 13.8423C11.4494 12.6451 11.2536 11.3652 11.3295 10.0868C11.4054 8.80842 11.7514 7.56066 12.3446 6.42573C12.9379 5.29081 13.7649 4.29451 14.7712 3.5025ZM2.5625 15C2.5625 7.57875 8.57875 1.5625 16 1.5625C16.8962 1.5625 17.3438 2.27625 17.4213 2.845C17.495 3.3925 17.2925 4.08875 16.6637 4.46875C15.7299 5.03232 14.9366 5.80103 14.3439 6.71664C13.7512 7.63224 13.3747 8.67073 13.2428 9.75343C13.1109 10.8361 13.2272 11.9346 13.5828 12.9657C13.9384 13.9969 14.524 14.9335 15.2953 15.7047C16.0665 16.476 17.0031 17.0616 18.0343 17.4172C19.0654 17.7728 20.1639 17.8891 21.2466 17.7572C22.3293 17.6253 23.3678 17.2488 24.2834 16.6561C25.199 16.0634 25.9677 15.2701 26.5312 14.3363C26.9112 13.7075 27.6075 13.505 28.155 13.5787C28.7238 13.6562 29.4375 14.1038 29.4375 15C29.4375 22.4212 23.4212 28.4375 16 28.4375C8.57875 28.4375 2.5625 22.4212 2.5625 15Z"
        fill="#174880" />
</svg>
