<svg width="28" height="28" viewBox="0 0 28 28" fill="none" xmlns="http://www.w3.org/2000/svg">
<path fill-rule="evenodd" clip-rule="evenodd" d="M12.7712 2.5025C10.6016 2.73449 8.5418 3.57569 6.83002 4.9289C5.11824 6.28211 3.82431 8.09208 3.09777 10.1496C2.37124 12.2072 2.24175 14.4283 2.72428 16.5564C3.20682 18.6844 4.28166 20.6324 5.82461 22.1754C7.36756 23.7183 9.31561 24.7932 11.4436 25.2757C13.5717 25.7582 15.7928 25.6288 17.8504 24.9022C19.9079 24.1757 21.7179 22.8818 23.0711 21.17C24.4243 19.4582 25.2655 17.3984 25.4975 15.2288C24.7055 16.2351 23.7092 17.0621 22.5743 17.6554C21.4393 18.2486 20.1916 18.5946 18.9132 18.6705C17.6348 18.7464 16.3549 18.5506 15.1577 18.0958C13.9606 17.641 12.8734 16.9377 11.9679 16.0321C11.0623 15.1266 10.359 14.0394 9.90422 12.8423C9.44944 11.6451 9.25355 10.3652 9.32946 9.0868C9.40537 7.80842 9.75135 6.56066 10.3446 5.42573C10.9379 4.29081 11.7649 3.29451 12.7712 2.5025ZM0.5625 14C0.5625 6.57875 6.57875 0.5625 14 0.5625C14.8962 0.5625 15.3438 1.27625 15.4213 1.845C15.495 2.3925 15.2925 3.08875 14.6637 3.46875C13.7299 4.03232 12.9366 4.80103 12.3439 5.71664C11.7512 6.63224 11.3747 7.67073 11.2428 8.75343C11.1109 9.83613 11.2272 10.9346 11.5828 11.9657C11.9384 12.9969 12.524 13.9335 13.2953 14.7047C14.0665 15.476 15.0031 16.0616 16.0343 16.4172C17.0654 16.7728 18.1639 16.8891 19.2466 16.7572C20.3293 16.6253 21.3678 16.2488 22.2834 15.6561C23.199 15.0634 23.9677 14.2701 24.5312 13.3363C24.9112 12.7075 25.6075 12.505 26.155 12.5787C26.7238 12.6562 27.4375 13.1038 27.4375 14C27.4375 21.4212 21.4212 27.4375 14 27.4375C6.57875 27.4375 0.5625 21.4212 0.5625 14Z" fill="#174880"/>
</svg>
