<svg width="56" height="56" viewBox="0 0 56 56" fill="none" xmlns="http://www.w3.org/2000/svg">
<path fill-rule="evenodd" clip-rule="evenodd" d="M28.5047 36.624C28.1854 36.4723 27.8143 36.4723 27.495 36.624L20.635 39.8836C19.7661 40.2965 18.7953 39.548 18.9809 38.6083L20.38 31.5239C20.454 31.1489 20.3384 30.7617 20.0706 30.4877L14.9993 25.2991C14.3255 24.6098 14.7341 23.4514 15.6932 23.3317L22.7892 22.446C23.1779 22.3975 23.5164 22.1589 23.6913 21.8104L26.9519 15.3112C27.3832 14.4516 28.6165 14.4516 29.0478 15.3112L32.3084 21.8104C32.4833 22.1589 32.8218 22.3975 33.2105 22.446L40.3065 23.3317C41.2656 23.4514 41.6741 24.6098 41.0004 25.2991L35.9291 30.4877C35.6613 30.7617 35.5457 31.1489 35.6197 31.5239L37.0188 38.6083C37.2043 39.548 36.2336 40.2965 35.3647 39.8836L28.5047 36.624Z" fill="#26282A"/>
</svg>
