<svg width="28" height="26" viewBox="0 0 28 26" fill="none" xmlns="http://www.w3.org/2000/svg">
    <path fill-rule="evenodd" clip-rule="evenodd"
        d="M14.5047 22.624C14.1854 22.4723 13.8143 22.4723 13.495 22.624L6.63497 25.8836C5.76607 26.2965 4.79534 25.548 4.98092 24.6083L6.37997 17.5239C6.45402 17.1489 6.3384 16.7617 6.07058 16.4877L0.999251 11.2991C0.325544 10.6098 0.734122 9.45141 1.69318 9.3317L8.7892 8.44598C9.17787 8.39747 9.5164 8.15893 9.69128 7.81036L12.9519 1.3112C13.3832 0.451605 14.6165 0.451607 15.0478 1.3112L18.3084 7.81036C18.4833 8.15893 18.8218 8.39747 19.2105 8.44598L26.3065 9.3317C27.2656 9.45141 27.6741 10.6098 27.0004 11.2991L21.9291 16.4877C21.6613 16.7617 21.5457 17.1489 21.6197 17.5239L23.0188 24.6083C23.2043 25.548 22.2336 26.2965 21.3647 25.8836L14.5047 22.624Z"
        fill="#26282A" />
</svg>
