<svg width="166" height="47" viewBox="0 0 166 47" fill="none" xmlns="http://www.w3.org/2000/svg">
<path d="M10.4667 11.7129C12.2538 12.3568 13.4487 13.2153 14.6542 14.705C16.4624 16.927 17.3401 19.4899 17.3401 22.5072C17.3401 27.5698 14.559 31.9254 10.4138 33.3268L9.56787 33.6172L10.8368 33.5667C12.3066 33.5162 13.0151 33.3142 14.2629 32.5946C16.896 31.1048 18.683 28.4915 19.3704 25.1837C19.6665 23.7319 19.6876 21.472 19.4127 20.0454C18.7676 16.6619 16.9171 13.9223 14.2629 12.4199C13.0151 11.7003 12.3066 11.4983 10.8368 11.4478L9.56787 11.3973L10.4667 11.7129Z" fill="#174880"/>
<path d="M6.9661 12.7987C9.34535 13.5436 11.3439 15.5005 12.4225 18.1517C13.0993 19.8182 13.2579 20.6388 13.2579 22.5073C13.2579 24.3758 13.0993 25.1964 12.4225 26.8629C11.3439 29.5142 9.34535 31.471 6.9661 32.2159L6.18359 32.4684H7.0084C10.7412 32.5063 14.051 29.451 15.0767 25.0197C15.3411 23.8961 15.3411 21.1186 15.0767 19.995C14.051 15.5636 10.7517 12.5084 7.0084 12.5462H6.18359L6.9661 12.7987Z" fill="#174880"/>
<path d="M4.35436 14.3637C4.38608 14.4142 4.79849 14.6035 5.25319 14.7929C6.26833 15.2095 7.07199 15.8282 7.89679 16.8255C9.134 18.3153 9.72617 19.9818 9.81077 22.128C9.86364 23.7187 9.68387 24.7666 9.12343 26.168C8.58413 27.5189 7.26233 29.0843 6.04627 29.804C5.55984 30.0943 5.00997 30.3595 4.79849 30.41C4.59757 30.4478 4.40723 30.5488 4.37551 30.612C4.29091 30.7761 5.64444 30.6246 6.4481 30.3847C8.2246 29.8418 9.96938 28.1249 10.7625 26.1554C11.3123 24.7792 11.4604 23.9839 11.4604 22.5067C11.4604 21.0296 11.3123 20.2343 10.7625 18.8581C9.96938 16.8886 8.2246 15.1717 6.4481 14.6288C5.77133 14.4268 4.24861 14.2374 4.35436 14.3637Z" fill="#174880"/>
<path d="M3.35044 16.7124C4.71454 17.2301 6.02577 18.6946 6.56507 20.3232C6.77656 20.9418 6.80828 21.2827 6.80828 22.5073C6.80828 23.7319 6.77656 24.0728 6.56507 24.6914C6.02577 26.32 4.71454 27.7845 3.35044 28.3021L2.69482 28.5546H3.13895C6.11037 28.6051 8.54249 25.108 8.03491 21.5225C7.63308 18.6567 5.46533 16.4221 3.13895 16.4599H2.69482L3.35044 16.7124Z" fill="#174880"/>
<path d="M2.50397 19.0352C3.20188 19.4519 3.94209 20.4366 4.16416 21.2067C4.25933 21.535 4.33335 22.1157 4.33335 22.5071C4.33335 22.8985 4.25933 23.4792 4.16416 23.8075C3.94209 24.5776 3.20188 25.5623 2.50397 25.979L1.9541 26.3198L2.46167 26.2441C3.43452 26.1052 4.28048 25.3603 4.74575 24.2493C5.36964 22.7722 5.13701 20.9416 4.18531 19.818C3.68831 19.2246 3.09614 18.8585 2.46167 18.7701L1.9541 18.6944L2.50397 19.0352Z" fill="#174880"/>
<path d="M1.49955 20.4494C1.98598 21.068 2.15517 21.6235 2.15517 22.5072C2.15517 23.391 1.98598 23.9465 1.49955 24.5525C1.17175 24.9691 1.26692 25.007 1.75334 24.6408C2.94825 23.7697 2.94825 21.2447 1.75334 20.3736C1.26692 20.0075 1.17175 20.0454 1.49955 20.4494Z" fill="#174880"/>
<path d="M24.8345 21.2373C24.8441 26.7702 24.9015 27.6099 25.3422 28.4603C25.8308 29.3752 26.2618 29.6444 27.6892 29.8812C29.0304 30.1072 32.2779 30.2041 33.9735 30.0534C36.56 29.8274 37.5563 29.4614 38.0353 28.5464C38.4951 27.6637 38.5334 27.1793 38.5334 21.4526V16.1564H37.0007H35.4679V21.2158C35.4679 27.0393 35.535 26.6195 34.5387 26.7702C33.8202 26.8779 29.8638 26.8779 29.0304 26.7702C28.6376 26.7272 28.2927 26.6088 28.1682 26.4904L27.9479 26.2966L27.9191 21.2265L27.8904 16.1564H26.3672H24.8345V21.2373Z" fill="#174880"/>
<path d="M40.2582 17.825V19.4935L44.1954 19.5151L48.1423 19.5474L44.0038 23.401L39.875 27.2547V28.7079V30.1504H46.4371H52.9992V28.4819V26.8134L48.9086 26.7919L44.8181 26.7596L48.9086 22.8951L52.9992 19.0307V17.5882V16.1565H46.6287H40.2582V17.825Z" fill="#174880"/>
<path d="M54.4355 17.825V19.4935H56.8784H59.3212V24.822V30.1504H60.8539H62.3867V24.822V19.4935H64.8295H67.2723V17.825V16.1565H60.8539H54.4355V17.825Z" fill="#174880"/>
<path d="M68.8052 23.1535V30.1504H74.7446H80.684V28.4819V26.8134H76.2773H71.8611L71.8898 25.7585L71.9186 24.7143L76.1624 24.682L80.3966 24.6605V23.0458V21.4311H76.1336H71.8707V20.4623V19.4935H76.2773H80.684V17.825V16.1565H74.7446H68.8052V23.1535Z" fill="#174880"/>
<path d="M82.4087 23.153V30.1499H88.1565H93.9043V28.4814V26.8129H89.6892H85.4742V21.4845V16.156H83.9414H82.4087V23.153Z" fill="#174880"/>
<path d="M95.3408 23.1535V30.1504H101.28H107.22V28.4819V26.8134H102.813H98.3967L98.4255 25.7585L98.4542 24.7143L102.698 24.682L106.932 24.6605V23.0458V21.4311H102.669H98.4063V20.4623V19.4935H102.813H107.22V17.825V16.1565H101.28H95.3408V23.1535Z" fill="#174880"/>
<path d="M129.54 16.264C125.862 16.5331 124.616 17.4696 124.367 20.1607C124.243 21.474 124.243 24.8864 124.367 26.1135C124.588 28.2664 125.479 29.3213 127.481 29.795C128.649 30.0749 134.675 30.0749 135.911 29.795C137.012 29.5474 137.664 29.2137 138.191 28.6109C138.813 27.9112 139.015 27.2115 139.149 25.2846C139.283 23.304 139.13 19.8486 138.881 19.0089C138.402 17.4266 137.329 16.6623 135.24 16.3932C133.976 16.2209 131.025 16.1563 129.54 16.264ZM134.464 19.5041C135.69 19.6763 135.729 19.6979 135.93 20.4299C136.256 21.657 136.102 25.9951 135.71 26.4364C135.403 26.7809 134.541 26.867 131.6 26.8563C128.18 26.8455 127.873 26.7917 127.577 26.1135C127.404 25.7152 127.385 25.4676 127.385 23.1533C127.385 19.7517 127.404 19.6979 128.908 19.5041C129.933 19.3642 133.497 19.3749 134.464 19.5041Z" fill="#174880"/>
<path d="M140.939 23.153V30.1499H142.472H144.005L144.024 25.5535L144.053 20.957L146.687 25.5427L149.322 30.1391H150.232L151.151 30.1499L153.776 25.575L156.411 21.0001L156.439 25.575L156.459 30.1499H157.991H159.524V23.153V16.156H157.531H155.529L152.914 20.8924C151.477 23.4974 150.27 25.6288 150.241 25.6288C150.213 25.6288 149.025 23.5082 147.597 20.914L145.011 16.2099L142.98 16.1776L140.939 16.156V23.153Z" fill="#174880"/>
<path d="M112.968 16.3717C109.625 16.8884 108.887 18.1479 108.906 23.3148C108.916 25.7907 109.021 26.6303 109.481 27.7821C110.142 29.4398 111.502 29.9996 115.123 30.118C118.141 30.2149 120.239 29.9135 121.216 29.2568C122.107 28.654 122.481 27.5991 122.605 25.3278L122.672 24.2298H121.139H119.607L119.549 25.0264C119.463 26.0813 119.252 26.6841 118.917 26.7918C118.783 26.8348 117.422 26.8671 115.89 26.8671C112.671 26.8563 112.46 26.8133 112.154 26.1136C111.79 25.274 111.847 20.9359 112.23 20.0424C112.403 19.6334 113.025 19.5042 115.075 19.4288C116.867 19.3642 118.84 19.4934 119.185 19.7087C119.405 19.8379 119.578 20.6345 119.578 21.5387V22.1845H121.13H122.672L122.615 20.9143C122.461 17.9756 121.839 17.0176 119.741 16.5224C118.926 16.3179 113.983 16.221 112.968 16.3717Z" fill="#174880"/>
</svg>
